Coordinates
version=1
nRows=60
nColumns=12
inDegrees=yes

Units are S.I. units (second, meters, Newtons, ...)
Angles are in degrees

endheader
time	SC_y	SC_z	SC_x	AC_y	AC_z	AC_x	GH_y	GH_z	GH_yy	EL_x	PS_y
       0.0              -23.54          13.11          28.31          48.63          4.565          11.12          137.8         -3.003          18.64          7.194          124.6
   0.04404              -23.54          13.12          28.31          48.63          4.563          11.12          137.8         -2.995          18.62          7.195          124.6
   0.08809              -23.54          13.12          28.31          48.63          4.561          11.12          137.8         -2.987          18.61          7.197          124.6
    0.1321              -23.55          13.12          28.31          48.63          4.558          11.12          137.8         -2.978          18.59          7.198          124.6
    0.1762              -23.55          13.13          28.32          48.63          4.556          11.11          137.8         -2.968          18.56            7.2          124.6
    0.2202              -23.55          13.13          28.32          48.63          4.553          11.11          137.8         -2.958          18.54          7.201          124.6
    0.2643              -23.56          13.14          28.32          48.63           4.55           11.1          137.8         -2.947          18.52          7.203          124.6
    0.3083              -23.56          13.14          28.32          48.62          4.546           11.1          137.8         -2.935          18.49          7.205          124.6
    0.3524              -23.57          13.15          28.32          48.62          4.543          11.09          137.8         -2.923          18.46          7.207          124.7
    0.3964              -23.57          13.15          28.33          48.62          4.539          11.09          137.8          -2.91          18.43          7.209          124.7
    0.4404              -23.58          13.16          28.33          48.62          4.535          11.08          137.8         -2.895           18.4          7.211          124.7
    0.4845              -23.59          13.17          28.33          48.62          4.531          11.08          137.8          -2.88          18.37          7.214          124.7
    0.5285              -23.59          13.17          28.33          48.61          4.526          11.07          137.8         -2.863          18.33          7.217          124.7
    0.5726               -23.6          13.18          28.34          48.61          4.521          11.07          137.8         -2.845          18.29           7.22          124.7
    0.6166              -23.61          13.19          28.34          48.61          4.516          11.06          137.8         -2.825          18.25          7.223          124.7
    0.6607              -23.62           13.2          28.35          48.61           4.51          11.05          137.8         -2.804           18.2          7.226          124.7
    0.7047              -23.63          13.21          28.35           48.6          4.503          11.04          137.8         -2.781          18.15           7.23          124.7
    0.7488              -23.64          13.22          28.35           48.6          4.496          11.03          137.8         -2.756          18.09          7.234          124.7
    0.7928              -23.65          13.23          28.36           48.6          4.488          11.02          137.8         -2.729          18.03          7.238          124.7
    0.8368              -23.66          13.25          28.36          48.59           4.48          11.01          137.8         -2.699          17.97          7.243          124.7
    0.8809              -23.68          13.26          28.37          48.59          4.471           11.0          137.8         -2.666          17.89          7.249          124.8
    0.9249              -23.69          13.28          28.38          48.58          4.461          10.99          137.8          -2.63          17.81          7.255          124.8
     0.969              -23.71          13.29          28.38          48.58          4.449          10.97          137.8          -2.59          17.73          7.261          124.8
     1.013              -23.73          13.31          28.39          48.57          4.437          10.95          137.8         -2.545          17.63          7.268          124.8
     1.057              -23.75          13.33           28.4          48.56          4.423          10.94          137.8         -2.496          17.52          7.276          124.8
     1.101              -23.77          13.36          28.41          48.56          4.408          10.92          137.8         -2.441           17.4          7.285          124.9
     1.145               -23.8          13.38          28.42          48.55           4.39          10.89          137.8          -2.38          17.26          7.295          124.9
     1.189              -23.82          13.41          28.43          48.54          4.371          10.87          137.8          -2.31          17.11          7.307          124.9
     1.233              -23.86          13.45          28.45          48.53          4.349          10.84          137.8         -2.232          16.93          7.319          125.0
     1.277              -23.89          13.49          28.46          48.52          4.324           10.8          137.8         -2.143          16.74          7.334          125.0
     1.321              -23.94          13.53          28.48           48.5          4.296          10.77          137.8         -2.042          16.51           7.35          125.0
     1.365              -23.99          13.58           28.5          48.49          4.263          10.72          137.8         -1.926          16.25          7.369          125.1
     1.409              -24.04          13.64          28.53          48.47          4.225          10.67          137.8         -1.791          15.95          7.391          125.1
     1.453              -24.11          13.71          28.55          48.45          4.182          10.61          137.8         -1.635          15.61          7.416          125.2
     1.498              -24.18          13.79          28.59          48.42           4.13          10.55          137.8         -1.452           15.2          7.446          125.3
     1.542              -24.27          13.88          28.63          48.39           4.07          10.47          137.8         -1.237          14.73          7.481          125.4
     1.586              -24.38           14.0          28.67          48.36          3.998          10.37          137.8        -0.9812          14.16          7.523          125.5
      1.63              -24.51          14.13          28.73          48.31          3.912          10.26          137.8        -0.6745          13.48          7.573          125.6
     1.674              -24.66          14.29          28.79          48.26          3.808          10.12          137.8        -0.3034          12.66          7.633          125.8
     1.718              -24.85          14.49          28.87           48.2          3.681          9.949          137.8           0.15          11.65          7.707          126.0
     1.762              -25.08          14.73          28.97          48.13          3.524           9.74          137.8         0.7095          10.41          7.798          126.2
     1.806              -25.38          15.04           29.1          48.03          3.328           9.48          137.8          1.407          8.862          7.912          126.6
      1.85              -25.74          15.42          29.26          47.91          3.082          9.152          137.8          2.286          6.913          8.055          126.9
     1.894              -26.21          15.91          29.45          47.76          2.768          8.736          137.8          3.403          4.435          8.236          127.4
     1.938               -26.8          16.53          29.71          47.56          2.367          8.202          137.8          4.833          1.264          8.469          128.1
     1.982              -27.57          17.33          30.04          47.31          1.852          7.518          137.8          6.669         -2.806          8.768          128.9
     2.026              -28.55          18.36          30.46          46.99          1.194          6.644          137.8          9.013         -8.004          9.149          129.9
      2.07              -29.78          19.64          30.98          46.59         0.3674          5.545          137.7          11.96         -14.54          9.629          131.2
     2.114              -31.28          21.21          31.63           46.1        -0.6403          4.205          137.7          15.55         -22.51          10.21          132.8
     2.158              -33.01          23.03          32.37          45.53         -1.808          2.653          137.7          19.72         -31.74          10.89          134.6
     2.202              -34.89          24.99          33.18          44.91         -3.073         0.9716          137.7          24.22         -41.74          11.62          136.6
     2.246              -36.77          26.96          33.98          44.29         -4.338        -0.7095          137.6          28.73         -51.74          12.36          138.6
      2.29              -38.51          28.78          34.73          43.72         -5.506         -2.262          137.6           32.9         -60.97          13.04          140.4
     2.334              -40.01          30.35          35.37          43.23         -6.514         -3.601          137.6          36.49         -68.93          13.62          142.0
     2.378              -41.24          31.63           35.9          42.83         -7.341         -4.701          137.6          39.44         -75.47           14.1          143.3
     2.422              -42.22          32.65          36.31          42.51         -7.998         -5.575          137.6          41.78         -80.67          14.48          144.3
     2.466              -42.98          33.46          36.64          42.26         -8.513         -6.259          137.5          43.62         -84.74          14.78          145.1
     2.511              -43.58          34.08           36.9          42.06         -8.914         -6.792          137.5          45.05         -87.91          15.01          145.7
     2.555              -44.05          34.57           37.1          41.91         -9.228         -7.209          137.5          46.16         -90.39          15.19          146.2
     2.599              -44.41          34.95          37.25          41.79         -9.474         -7.537          137.5          47.04         -92.34          15.34          146.6
